<svg width="19" height="16" viewBox="0 0 19 16" fill="none" xmlns="http://www.w3.org/2000/svg">
<path fill-rule="evenodd" clip-rule="evenodd" d="M0.114027 0.941695C0.227567 0.662927 0.419852 0.424662 0.666561 0.25704C0.913271 0.0894169 1.20332 -3.42432e-05 1.50003 9.83356e-09H11.5C13.4892 9.83356e-09 15.3968 0.803569 16.8033 2.23393C18.2099 3.66429 19 5.60428 19 7.62712C19 9.64996 18.2099 11.5899 16.8033 13.0203C15.3968 14.4507 13.4892 15.2542 11.5 15.2542H2.50003C2.1022 15.2542 1.72067 15.0935 1.43937 14.8075C1.15806 14.5214 1.00003 14.1334 1.00003 13.7288C1.00003 13.3242 1.15806 12.9362 1.43937 12.6502C1.72067 12.3641 2.1022 12.2034 2.50003 12.2034H11.5C12.6935 12.2034 13.8381 11.7212 14.682 10.863C15.5259 10.0048 16 8.84082 16 7.62712C16 6.41342 15.5259 5.24942 14.682 4.39121C13.8381 3.53299 12.6935 3.05085 11.5 3.05085H5.12103L6.06103 4.00678C6.33413 4.29461 6.48515 4.68001 6.48155 5.07997C6.47795 5.47993 6.32001 5.86245 6.04177 6.14514C5.76353 6.42784 5.38723 6.58809 4.99393 6.59137C4.60063 6.59466 4.2218 6.44072 3.93903 6.16271L0.439027 2.60339C0.229412 2.3901 0.0866646 2.11841 0.0288188 1.82265C-0.029027 1.52689 0.000624657 1.22033 0.114027 0.941695Z" fill="white"/>
</svg>
