<svg width="32" height="32" viewBox="0 0 32 32" fill="none" xmlns="http://www.w3.org/2000/svg">
<path d="M16 0C12.8355 0 9.74207 0.938383 7.11088 2.69649C4.4797 4.45459 2.42894 6.95345 1.21793 9.87706C0.0069325 12.8007 -0.309921 16.0177 0.307443 19.1214C0.924806 22.2251 2.44866 25.0761 4.6863 27.3137C6.92394 29.5513 9.77487 31.0752 12.8786 31.6926C15.9823 32.3099 19.1993 31.9931 22.1229 30.7821C25.0466 29.5711 27.5454 27.5203 29.3035 24.8891C31.0616 22.2579 32 19.1645 32 16C32 11.7565 30.3143 7.68687 27.3137 4.68629C24.3131 1.68571 20.2435 0 16 0ZM16.06 17.68C15.8911 17.6813 15.7236 17.6492 15.5671 17.5855C15.4106 17.5217 15.2684 17.4276 15.1484 17.3087C15.0285 17.1897 14.9333 17.0481 14.8684 16.8922C14.8034 16.7362 14.77 16.5689 14.77 16.4V6.65C14.77 6.30787 14.9059 5.97975 15.1478 5.73783C15.3898 5.49591 15.7179 5.36 16.06 5.36C16.4021 5.36 16.7303 5.49591 16.9722 5.73783C17.2141 5.97975 17.35 6.30787 17.35 6.65V16.4C17.35 16.5689 17.3166 16.7362 17.2516 16.8922C17.1867 17.0481 17.0915 17.1897 16.9716 17.3087C16.8517 17.4276 16.7094 17.5217 16.5529 17.5855C16.3965 17.6492 16.2289 17.6813 16.06 17.68ZM16 25.79C13.8938 25.8149 11.8348 25.1661 10.1234 23.9381C8.41198 22.7102 7.13782 20.9674 6.48683 18.9642C5.83583 16.961 5.84209 14.8022 6.50468 12.8027C7.16728 10.8033 8.45153 9.068 10.17 7.85C10.4693 7.63665 10.8405 7.54958 11.2035 7.60758C11.5665 7.66558 11.8921 7.864 12.11 8.16C12.2164 8.30618 12.2928 8.47196 12.3348 8.64781C12.3768 8.82365 12.3836 9.00607 12.3548 9.18455C12.326 9.36303 12.2621 9.53404 12.1669 9.68773C12.0717 9.84141 11.947 9.97473 11.8 10.08C10.8115 10.8059 10.0255 11.7729 9.51681 12.8889C9.00812 14.0048 8.79374 15.2324 8.8941 16.4547C8.99447 17.6769 9.40625 18.8531 10.0902 19.8711C10.7741 20.8891 11.7073 21.7149 12.801 22.2699C13.8946 22.8248 15.1122 23.0904 16.3376 23.0413C17.563 22.9922 18.7554 22.63 19.8011 21.9893C20.8468 21.3486 21.711 20.4507 22.3112 19.3812C22.9115 18.3118 23.2278 17.1064 23.23 15.88C23.2266 14.75 22.9525 13.6373 22.4305 12.6351C21.9085 11.633 21.154 10.7705 20.23 10.12C19.9455 9.89547 19.7616 9.56736 19.7184 9.2075C19.6753 8.84765 19.7766 8.48537 20 8.2C20.2209 7.90714 20.5479 7.71268 20.9107 7.65844C21.2735 7.60421 21.6431 7.69454 21.94 7.91C23.6405 9.14195 24.9043 10.8837 25.548 12.8825C26.1917 14.8812 26.1818 17.0331 25.5198 19.0259C24.8578 21.0187 23.578 22.7488 21.8662 23.965C20.1544 25.1813 18.0997 25.8205 16 25.79Z" fill="#F7EDE2"/>
</svg>
